<?xml version="1.0" encoding="UTF-8" standalone="no"?>
<!DOCTYPE svg PUBLIC "-//W3C//DTD SVG 1.1//EN"
 "http://www.w3.org/Graphics/SVG/1.1/DTD/svg11.dtd">
<!-- Generated by graphviz version 15.0.0 (20260523.1842)
 -->
<!-- Pages: 1 -->
<svg width="743pt" height="100pt"
 viewBox="0.00 0.00 743.00 100.00" xmlns="http://www.w3.org/2000/svg" xmlns:xlink="http://www.w3.org/1999/xlink">
<g id="graph0" class="graph" transform="scale(1 1) rotate(0) translate(4 96)">
<polygon fill="white" stroke="none" points="-4,4 -4,-96 739,-96 739,4 -4,4"/>
<!-- 2813075435264 -->
<g id="node1" class="node">
<title>2813075435264</title>
<polygon fill="none" stroke="black" points="574,-23.5 574,-59.5 735,-59.5 735,-23.5 574,-23.5"/>
<text xml:space="preserve" text-anchor="middle" x="613.88" y="-36.7" font-family="Times New Roman,serif" font-size="14.00">data 8.0000</text>
<polyline fill="none" stroke="black" points="653.75,-24 653.75,-59.5"/>
<text xml:space="preserve" text-anchor="middle" x="694.38" y="-36.7" font-family="Times New Roman,serif" font-size="14.00">grad 1.0000</text>
</g>
<!-- 2813075435264+ -->
<g id="node2" class="node">
<title>2813075435264+</title>
<ellipse fill="none" stroke="black" cx="511" cy="-41.5" rx="27" ry="18"/>
<text xml:space="preserve" text-anchor="middle" x="511" y="-36.45" font-family="Times New Roman,serif" font-size="14.00">+</text>
</g>
<!-- 2813075435264+&#45;&gt;2813075435264 -->
<g id="edge1" class="edge">
<title>2813075435264+&#45;&gt;2813075435264</title>
<path fill="none" stroke="black" d="M538.28,-41.5C545.4,-41.5 553.52,-41.5 562.08,-41.5"/>
<polygon fill="black" stroke="black" points="562.04,-45 572.04,-41.5 562.04,-38 562.04,-45"/>
</g>
<!-- 2813075136128 -->
<g id="node3" class="node">
<title>2813075136128</title>
<polygon fill="none" stroke="black" points="287,-47.5 287,-83.5 448,-83.5 448,-47.5 287,-47.5"/>
<text xml:space="preserve" text-anchor="middle" x="326.88" y="-60.7" font-family="Times New Roman,serif" font-size="14.00">data 6.0000</text>
<polyline fill="none" stroke="black" points="366.75,-48 366.75,-83.5"/>
<text xml:space="preserve" text-anchor="middle" x="407.38" y="-60.7" font-family="Times New Roman,serif" font-size="14.00">grad 1.0000</text>
</g>
<!-- 2813075136128&#45;&gt;2813075435264+ -->
<g id="edge3" class="edge">
<title>2813075136128&#45;&gt;2813075435264+</title>
<path fill="none" stroke="black" d="M448.35,-51.96C457.01,-50.49 465.48,-49.05 473.24,-47.74"/>
<polygon fill="black" stroke="black" points="473.63,-51.22 482.9,-46.1 472.46,-44.32 473.63,-51.22"/>
</g>
<!-- 2813075136128* -->
<g id="node4" class="node">
<title>2813075136128*</title>
<ellipse fill="none" stroke="black" cx="224" cy="-65.5" rx="27" ry="18"/>
<text xml:space="preserve" text-anchor="middle" x="224" y="-60.45" font-family="Times New Roman,serif" font-size="14.00">*</text>
</g>
<!-- 2813075136128*&#45;&gt;2813075136128 -->
<g id="edge2" class="edge">
<title>2813075136128*&#45;&gt;2813075136128</title>
<path fill="none" stroke="black" d="M251.28,-65.5C258.4,-65.5 266.52,-65.5 275.08,-65.5"/>
<polygon fill="black" stroke="black" points="275.04,-69 285.04,-65.5 275.04,-62 275.04,-69"/>
</g>
<!-- 2812726832032 -->
<g id="node5" class="node">
<title>2812726832032</title>
<polygon fill="none" stroke="black" points="0,-55.5 0,-91.5 161,-91.5 161,-55.5 0,-55.5"/>
<text xml:space="preserve" text-anchor="middle" x="39.88" y="-68.7" font-family="Times New Roman,serif" font-size="14.00">data 3.0000</text>
<polyline fill="none" stroke="black" points="79.75,-56 79.75,-91.5"/>
<text xml:space="preserve" text-anchor="middle" x="120.38" y="-68.7" font-family="Times New Roman,serif" font-size="14.00">grad 2.0000</text>
</g>
<!-- 2812726832032&#45;&gt;2813075136128* -->
<g id="edge5" class="edge">
<title>2812726832032&#45;&gt;2813075136128*</title>
<path fill="none" stroke="black" d="M161.35,-68.99C169.74,-68.51 177.96,-68.05 185.52,-67.62"/>
<polygon fill="black" stroke="black" points="185.5,-71.13 195.28,-67.07 185.1,-64.14 185.5,-71.13"/>
</g>
<!-- 2812726831888 -->
<g id="node6" class="node">
<title>2812726831888</title>
<polygon fill="none" stroke="black" points="0,-0.5 0,-36.5 161,-36.5 161,-0.5 0,-0.5"/>
<text xml:space="preserve" text-anchor="middle" x="39.88" y="-13.7" font-family="Times New Roman,serif" font-size="14.00">data 2.0000</text>
<polyline fill="none" stroke="black" points="79.75,-1 79.75,-36.5"/>
<text xml:space="preserve" text-anchor="middle" x="120.38" y="-13.7" font-family="Times New Roman,serif" font-size="14.00">grad 4.0000</text>
</g>
<!-- 2812726831888&#45;&gt;2813075435264+ -->
<g id="edge6" class="edge">
<title>2812726831888&#45;&gt;2813075435264+</title>
<path fill="none" stroke="black" d="M161.34,-22.79C254.27,-27.77 403.79,-35.8 472.85,-39.51"/>
<polygon fill="black" stroke="black" points="472.31,-42.98 482.48,-40.02 472.69,-35.99 472.31,-42.98"/>
</g>
<!-- 2812726831888&#45;&gt;2813075136128* -->
<g id="edge4" class="edge">
<title>2812726831888&#45;&gt;2813075136128*</title>
<path fill="none" stroke="black" d="M137.02,-36.94C154.46,-42.74 173.21,-48.96 188.72,-54.12"/>
<polygon fill="black" stroke="black" points="187.36,-57.35 197.95,-57.18 189.57,-50.71 187.36,-57.35"/>
</g>
</g>
</svg>
